# xmcd
#
# Track frame offsets:
#	150
#	14294
#	28819
#	45790
#	64789
#	80641
#	97900
#	112045
#	126571
#	143542
#	162536
#	178388
#
# Disc length: 2608 seconds
#
# Revision: 0
# Processed by: cddbd v1.5.2PL0 Copyright (c) Steve Scherf et al.
# Submitted via: audiograbber 1.83.01
#
DISCID=a20a2e0c
DTITLE=Michael Peterson - CB 20465
DYEAR=1900
DGENRE=Country
TTITLE0=By The Book (Vocals)
TTITLE1=Drink, Swear, Steal and Lie (Vocals)
TTITLE2=From Here To Eternity (Vocals)
TTITLE3=Somethin' 'Bout A Sunday (Vocals)
TTITLE4=Too Good To Be True (Vocals)
TTITLE5=When The Bartender Cries (Vocals)
TTITLE6=By The Book
TTITLE7=Drink, Swear, Steal and Lie
TTITLE8=From Here To Eternity
TTITLE9=Somethin' 'Bout A Sunday
TTITLE10=Too Good To Be True
TTITLE11=When The Bartender Cries
EXTD=
EXTT0=
EXTT1=
EXTT2=
EXTT3=
EXTT4=
EXTT5=
EXTT6=
EXTT7=
EXTT8=
EXTT9=
EXTT10=
EXTT11=
PLAYORDER=
